<?xml version="1.0" encoding="utf-8"?>
<svg version="1.1" id="圖層_1" xmlns="http://www.w3.org/2000/svg" xmlns:xlink="http://www.w3.org/1999/xlink" x="0px" y="0px"
	 viewBox="0 0 505.4 505.4" style="enable-background:new 0 0 505.4 505.4;" width="48px" height="48px" xml:space="preserve">
<style type="text/css">
	.st2{fill:#F20600;}
</style>
<g>
	<path class="st2" d="M456.9,219.8h-12c-6.6,0-12-5.4-12-12v-12c0-6.6,5.4-12,12-12h12c6.6,0,12,5.4,12,12v12
		C468.9,214.4,463.5,219.8,456.9,219.8z"/>
	<g>
		<polygon class="st2" points="315.9,275 238,275 255.9,239 315.9,239 		"/>
		<path class="st2" d="M296.4,335h-52.3l66.6-133.5c5.4-10.9,16.5-17.7,28.6-17.7h52.3l-66.6,133.5C319.7,328.1,308.6,335,296.4,335
			z"/>
		<path class="st2" d="M174.2,335h-52.3l66.6-133.5c5.4-10.9,16.5-17.7,28.6-17.7h52.3l-66.6,133.5C197.4,328.1,186.3,335,174.2,335
			z"/>
	</g>
	<path class="st2" d="M432.3,266.9c-7.3,93.2-85.8,166.7-181,166c-98.4-0.7-178.5-81.2-178.8-179.7C72.3,156,149.5,76.4,245.8,72.7
		c4.3-0.2,8.2-2.7,10.2-6.6l14.8-29.5h-16.2c-119.1,0-218.2,97.5-218,216.6c0.2,119.2,96.9,215.8,216.2,215.8
		c118.3,0,214.5-95.1,216.1-213h-24.6C438,255.8,432.8,260.6,432.3,266.9z"/>
</g>
</svg>
